<svg width="23" height="25" viewBox="0 0 23 25" fill="none" xmlns="http://www.w3.org/2000/svg">
<g id="Calendar">
<path id="Combined-Shape" d="M0.00845978 8.46542C-0.0618135 7.06985 0.307368 5.69133 1.05444 4.53551L1.24905 4.25131L1.26513 4.23574L1.40023 4.07721L1.54177 3.91534L1.55785 3.89865C1.82806 3.62164 2.12721 3.37801 2.44996 3.16997L2.5411 3.11226L2.63224 3.05872L2.84669 2.93523C2.93354 2.89407 3.0279 2.84512 3.11475 2.80396C3.17801 2.77949 3.24128 2.74722 3.30454 2.72275C3.42356 2.67269 3.55008 2.62374 3.67661 2.58258C3.7195 2.56144 3.76453 2.54475 3.81064 2.53363L3.86184 2.51304L3.91786 2.49246C4.49473 2.32003 5.08768 2.20099 5.68707 2.14648L5.625 2.15375V0.910453C5.625 0.411946 6.02712 0.00887302 6.52444 0.00887302C7.02176 0.00887302 7.425 0.411946 7.425 0.910453V4.84013C7.425 5.33864 7.02176 5.74283 6.52444 5.74283C6.02712 5.74283 5.625 5.33864 5.625 4.84013L5.62506 3.93162C5.03462 3.99073 4.45486 4.13764 3.905 4.37035C2.48604 5.00869 1.80931 6.22435 1.74519 8.15086L1.74013 8.46098V8.94491H20.7607V8.44874C20.7971 7.55652 20.6181 6.66875 20.2385 5.86665C19.8739 5.18024 19.2906 4.64736 18.5862 4.35811C18.1375 4.16498 17.6676 4.03024 17.1874 3.95672L16.875 3.91875L16.875 4.8356C16.875 5.33196 16.4723 5.73398 15.975 5.73398C15.4778 5.73398 15.075 5.33196 15.075 4.8356L15.075 3.85125L7.43375 3.85193V2.06415L15.075 2.06375L15.075 0.905165C15.0705 0.408807 15.471 0.00341107 15.9683 2.09311e-05C16.4655 -0.00332682 16.8717 0.395331 16.875 0.891689L16.8758 2.14684C17.3125 2.18993 17.7456 2.26611 18.1719 2.37496L18.5958 2.49469C18.6301 2.50136 18.6559 2.51026 18.703 2.52695C18.7502 2.54364 18.7899 2.56033 18.8371 2.5759C18.9625 2.61706 19.0794 2.66601 19.2006 2.71607C19.2703 2.74055 19.3346 2.77281 19.3893 2.79729C19.4836 2.83845 19.5801 2.8874 19.6573 2.92856C19.7367 2.96972 19.8128 3.01533 19.8793 3.05205C19.9458 3.08876 19.9972 3.12992 20.053 3.1633C20.2959 3.32016 20.5267 3.49704 20.7422 3.69161L20.9526 3.89198L20.9623 3.90866L21.1093 4.06469L21.2475 4.22906L21.255 4.24464C22.0636 5.36295 22.4986 6.72108 22.5 8.11254L22.4913 8.46098V8.94491H22.5V18.6377C22.5 22.8645 20.1395 25 15.4614 25H7.0279C2.36052 25 1.6762e-09 22.8645 1.6762e-09 18.6377V8.94491H0.00845978V8.46542ZM16.3948 17.8079C15.8155 17.8079 15.3541 18.2836 15.3541 18.8701C15.3648 19.4565 15.8262 19.9323 16.3948 19.9323C16.9635 19.9323 17.4249 19.4565 17.4249 18.8701C17.4249 18.2836 16.9635 17.8079 16.3948 17.8079ZM11.2554 17.7968C10.676 17.8079 10.2146 18.2836 10.2146 18.8701C10.2146 19.4565 10.6867 19.9323 11.2554 19.9323C11.824 19.9323 12.2854 19.4565 12.2854 18.859C12.2747 18.2836 11.824 17.8079 11.2554 17.7968ZM6.10515 17.7968C5.52575 17.7968 5.06438 18.2836 5.07511 18.8701C5.07511 19.4565 5.53648 19.9323 6.10515 19.9323C6.67382 19.9323 7.13519 19.4454 7.13519 18.859C7.13519 18.2726 6.67382 17.7968 6.10515 17.7968ZM16.3948 13.2713C15.8155 13.2713 15.3648 13.7471 15.3648 14.3335C15.3648 14.9199 15.8262 15.3957 16.3948 15.3957C16.9635 15.3957 17.4249 14.9199 17.4249 14.3335C17.4249 13.7471 16.9635 13.2713 16.3948 13.2713ZM11.2554 13.2602C10.676 13.2713 10.2146 13.7471 10.2146 14.3335C10.2146 14.9199 10.6867 15.3957 11.2554 15.3957C11.824 15.3957 12.2854 14.9199 12.2854 14.3224C12.2854 13.7471 11.824 13.2713 11.2554 13.2602ZM6.11588 13.2602C5.53648 13.2602 5.07511 13.7471 5.07511 14.3335C5.07511 14.9199 5.53648 15.3957 6.10515 15.3957C6.68455 15.3957 7.14592 14.9089 7.13519 14.3224C7.13519 13.736 6.67382 13.2602 6.11588 13.2602Z" fill="#BAC9FF"/>
</g>
</svg>
