<svg width="20" height="20" viewBox="0 0 20 20" fill="none" xmlns="http://www.w3.org/2000/svg">
<path id="Vector" fill-rule="evenodd" clip-rule="evenodd" d="M9.21198 0.0117255C7.16117 0.222669 5.49485 0.860073 3.92627 2.03363C3.44349 2.39485 2.38235 3.45937 2.01815 3.94784C0.963092 5.36302 0.35062 6.83838 0.0755397 8.62753C-0.00983266 9.1828 -0.0219284 10.6901 0.0546648 11.2272C0.21546 12.3543 0.519765 13.3779 0.971208 14.3103C1.51423 15.4319 2.0249 16.1473 2.92892 17.0531C3.83778 17.9636 4.55197 18.4752 5.65904 19.0089C8.05348 20.163 10.7452 20.3139 13.2894 19.4367C13.8759 19.2345 14.948 18.6961 15.4939 18.3297C16.4297 17.7016 17.2857 16.892 17.9608 15.9965C19.0426 14.5615 19.7906 12.6211 19.9086 10.9438C19.9226 10.7449 19.949 10.5822 19.9673 10.5822C19.9856 10.5822 20.0003 10.2963 20 9.9469C19.9996 9.59483 19.9849 9.33444 19.967 9.36282C19.9477 9.39331 19.9246 9.26696 19.9098 9.05008C19.7971 7.39756 19.0534 5.45599 17.9877 4.03196C16.3715 1.87234 14.074 0.500969 11.3775 0.086275C10.9849 0.025877 9.55339 -0.0233796 9.21198 0.0117255ZM9.80756 3.58322C9.61294 3.64413 9.44422 3.77423 9.35612 3.93126L9.2691 4.08638L9.27956 7.17504C9.28986 10.2198 9.29115 10.2653 9.37012 10.3741C9.46708 10.5077 13.0627 13.4082 13.2368 13.4931C13.405 13.5753 13.7089 13.5694 13.8753 13.4807C13.9501 13.4409 14.063 13.3351 14.1262 13.2457C14.2652 13.0494 14.2854 12.7566 14.1753 12.5337C14.1241 12.43 13.6619 12.0376 12.3907 11.0187L10.6752 9.64358V6.86183V4.08013L10.5814 3.91988C10.4317 3.66391 10.0627 3.50331 9.80756 3.58322ZM0 9.99576C0 10.3505 0.0059308 10.4957 0.0131492 10.3183C0.0203676 10.1409 0.0203676 9.85061 0.0131492 9.67325C0.0059308 9.49589 0 9.641 0 9.99576Z" fill="#BAC9FF"/>
</svg>
